<svg xmlns="http://www.w3.org/2000/svg" width="364" height="427"><path fill="#FAFBFD" fill-rule="evenodd" d="M-108.59-34.943c-106.031 102.394-101.377 272.072-.165 376.88 105.935 109.698 280.283 113.14 388.353 8.779 63.211-61.043 89.137-145.186 82.534-226.291l-88.992 22.102c3.138 49.773-14.631 103.185-55.004 142.173-73.405 70.887-192.443 68.41-264.903-6.624-72.071-74.632-70.392-193.684 5.051-266.539 8.97-8.662 18.734-16.51 28.875-23.149l-95.749-27.33zm444.697 65.495C324.924 5.1 311.63-14.376 295.483-31.096c-12.207-12.641-24.473-22.076-33.978-28.659L147.144-31.28c23.935 6.835 48.126 22.09 68.995 43.702 12.21 12.644 21.607 25.635 29.763 40.614l90.205-22.484z"/></svg>